<svg width="199" height="60" viewBox="0 0 199 60" fill="none" xmlns="http://www.w3.org/2000/svg">
<path d="M36.875 28.3075C36.875 28.5561 36.7762 28.7946 36.6004 28.9704C36.4246 29.1462 36.1861 29.245 35.9375 29.245H28.4375C28.1889 29.245 27.9504 29.1462 27.7746 28.9704C27.5988 28.7946 27.5 28.5561 27.5 28.3075C27.5 28.0589 27.5988 27.8204 27.7746 27.6446C27.9504 27.4688 28.1889 27.37 28.4375 27.37H35.9375C36.1861 27.37 36.4246 27.4688 36.6004 27.6446C36.7762 27.8204 36.875 28.0589 36.875 28.3075ZM35.9375 31.12H28.4375C28.1889 31.12 27.9504 31.2188 27.7746 31.3946C27.5988 31.5704 27.5 31.8089 27.5 32.0575C27.5 32.3061 27.5988 32.5446 27.7746 32.7204C27.9504 32.8962 28.1889 32.995 28.4375 32.995H35.9375C36.1861 32.995 36.4246 32.8962 36.6004 32.7204C36.7762 32.5446 36.875 32.3061 36.875 32.0575C36.875 31.8089 36.7762 31.5704 36.6004 31.3946C36.4246 31.2188 36.1861 31.12 35.9375 31.12ZM44.375 30.1825C44.3755 32.2866 43.8311 34.3551 42.795 36.1864C41.7589 38.0178 40.2663 39.5497 38.4625 40.6331C36.6587 41.7164 34.6052 42.3144 32.5017 42.3686C30.3983 42.4229 28.3166 41.9316 26.4594 40.9427L22.4691 42.2727C22.1388 42.3829 21.7842 42.3989 21.4453 42.3189C21.1064 42.2389 20.7964 42.0661 20.5501 41.8199C20.3039 41.5736 20.1311 41.2636 20.0511 40.9247C19.9711 40.5858 19.9871 40.2312 20.0973 39.9009L21.4273 35.9106C20.558 34.2761 20.0724 32.4651 20.0075 30.6149C19.9426 28.7647 20.3 26.9241 21.0527 25.2327C21.8053 23.5412 22.9334 22.0435 24.3513 20.8532C25.7692 19.6629 27.4397 18.8112 29.2359 18.3628C31.0321 17.9145 32.9068 17.8812 34.7178 18.2655C36.5287 18.6499 38.2284 19.4418 39.6876 20.5811C41.1468 21.7203 42.3274 23.1771 43.1395 24.8407C43.9517 26.5044 44.3742 28.3312 44.375 30.1825ZM42.5 30.1825C42.4996 28.6006 42.1352 27.04 41.4351 25.6215C40.735 24.203 39.718 22.9645 38.4627 22.0019C37.2074 21.0393 35.7474 20.3784 34.1958 20.0704C32.6442 19.7623 31.0426 19.8153 29.5147 20.2253C27.9869 20.6353 26.5739 21.3913 25.3849 22.4348C24.196 23.4782 23.2631 24.7812 22.6584 26.243C22.0536 27.7047 21.7932 29.2859 21.8974 30.8644C22.0015 32.4429 22.4674 33.9762 23.259 35.3458C23.3254 35.4608 23.3667 35.5885 23.38 35.7207C23.3933 35.8528 23.3785 35.9863 23.3363 36.1122L21.875 40.495L26.2578 39.0337C26.3533 39.0011 26.4534 38.9845 26.5543 38.9845C26.7189 38.9847 26.8806 39.0284 27.023 39.111C28.5908 40.0181 30.3698 40.4962 32.181 40.4974C33.9922 40.4985 35.7718 40.0226 37.3407 39.1175C38.9096 38.2125 40.2124 36.9101 41.1181 35.3416C42.0238 33.7731 42.5004 31.9937 42.5 30.1825Z" fill="#33B394"/>
<path d="M53.6136 38.5V21.0455H59.5114C60.875 21.0455 61.9943 21.2784 62.8693 21.7443C63.7443 22.2045 64.392 22.8381 64.8125 23.6449C65.233 24.4517 65.4432 25.3693 65.4432 26.3977C65.4432 27.4261 65.233 28.3381 64.8125 29.1335C64.392 29.929 63.7472 30.554 62.8778 31.0085C62.0085 31.4574 60.8977 31.6818 59.5455 31.6818H54.7727V29.7727H59.4773C60.4091 29.7727 61.1591 29.6364 61.7273 29.3636C62.3011 29.0909 62.7159 28.7045 62.9716 28.2045C63.233 27.6989 63.3636 27.0966 63.3636 26.3977C63.3636 25.6989 63.233 25.0881 62.9716 24.5653C62.7102 24.0426 62.2926 23.6392 61.7188 23.3551C61.1449 23.0653 60.3864 22.9205 59.4432 22.9205H55.7273V38.5H53.6136ZM61.8295 30.6591L66.125 38.5H63.6705L59.4432 30.6591H61.8295ZM73.87 38.7727C72.6882 38.7727 71.6513 38.4915 70.7592 37.929C69.8729 37.3665 69.1797 36.5795 68.6797 35.5682C68.1854 34.5568 67.9382 33.375 67.9382 32.0227C67.9382 30.6591 68.1854 29.4687 68.6797 28.4517C69.1797 27.4347 69.8729 26.6449 70.7592 26.0824C71.6513 25.5199 72.6882 25.2386 73.87 25.2386C75.0518 25.2386 76.0859 25.5199 76.9723 26.0824C77.8643 26.6449 78.5575 27.4347 79.0518 28.4517C79.5518 29.4687 79.8018 30.6591 79.8018 32.0227C79.8018 33.375 79.5518 34.5568 79.0518 35.5682C78.5575 36.5795 77.8643 37.3665 76.9723 37.929C76.0859 38.4915 75.0518 38.7727 73.87 38.7727ZM73.87 36.9659C74.7678 36.9659 75.5064 36.7358 76.0859 36.2756C76.6655 35.8153 77.0945 35.2102 77.3729 34.4602C77.6513 33.7102 77.7905 32.8977 77.7905 32.0227C77.7905 31.1477 77.6513 30.3324 77.3729 29.5767C77.0945 28.821 76.6655 28.2102 76.0859 27.7443C75.5064 27.2784 74.7678 27.0455 73.87 27.0455C72.9723 27.0455 72.2337 27.2784 71.6541 27.7443C71.0746 28.2102 70.6456 28.821 70.3672 29.5767C70.0888 30.3324 69.9496 31.1477 69.9496 32.0227C69.9496 32.8977 70.0888 33.7102 70.3672 34.4602C70.6456 35.2102 71.0746 35.8153 71.6541 36.2756C72.2337 36.7358 72.9723 36.9659 73.87 36.9659ZM88.1903 38.7727C86.9631 38.7727 85.9063 38.483 85.0199 37.9034C84.1335 37.3239 83.4517 36.5256 82.9744 35.5085C82.4972 34.4915 82.2585 33.3295 82.2585 32.0227C82.2585 30.6932 82.5028 29.5199 82.9915 28.5028C83.4858 27.4801 84.1733 26.6818 85.054 26.108C85.9403 25.5284 86.9744 25.2386 88.1562 25.2386C89.0767 25.2386 89.9062 25.4091 90.6449 25.75C91.3835 26.0909 91.9886 26.5682 92.4602 27.1818C92.9318 27.7955 93.2244 28.5114 93.3381 29.3295H91.3267C91.1733 28.733 90.8324 28.2045 90.304 27.7443C89.7813 27.2784 89.0767 27.0455 88.1903 27.0455C87.4063 27.0455 86.7188 27.25 86.1278 27.6591C85.5426 28.0625 85.0852 28.6335 84.7557 29.3722C84.4318 30.1051 84.2699 30.9659 84.2699 31.9545C84.2699 32.9659 84.429 33.8466 84.7472 34.5966C85.071 35.3466 85.5256 35.929 86.1108 36.3438C86.7017 36.7585 87.3949 36.9659 88.1903 36.9659C88.7131 36.9659 89.1875 36.875 89.6136 36.6932C90.0398 36.5114 90.4006 36.25 90.696 35.9091C90.9915 35.5682 91.2017 35.1591 91.3267 34.6818H93.3381C93.2244 35.4545 92.9432 36.1506 92.4943 36.7699C92.0511 37.3835 91.4631 37.8722 90.7301 38.2358C90.0028 38.5938 89.1563 38.7727 88.1903 38.7727ZM98.1534 33.7273L98.1193 31.2386H98.5284L104.256 25.4091H106.744L100.642 31.5795H100.472L98.1534 33.7273ZM96.2784 38.5V21.0455H98.2898V38.5H96.2784ZM104.597 38.5L99.483 32.0227L100.915 30.625L107.153 38.5H104.597ZM114.283 38.7727C113.021 38.7727 111.933 38.4943 111.018 37.9375C110.109 37.375 109.408 36.5909 108.913 35.5852C108.425 34.5739 108.18 33.3977 108.18 32.0568C108.18 30.7159 108.425 29.5341 108.913 28.5114C109.408 27.483 110.095 26.6818 110.976 26.108C111.862 25.5284 112.896 25.2386 114.078 25.2386C114.76 25.2386 115.433 25.3523 116.098 25.5795C116.763 25.8068 117.368 26.1761 117.913 26.6875C118.459 27.1932 118.893 27.8636 119.217 28.6989C119.541 29.5341 119.703 30.5625 119.703 31.7841V32.6364H109.612V30.8977H117.658C117.658 30.1591 117.51 29.5 117.214 28.9205C116.925 28.3409 116.51 27.8835 115.97 27.5483C115.436 27.2131 114.805 27.0455 114.078 27.0455C113.277 27.0455 112.584 27.2443 111.999 27.642C111.419 28.0341 110.973 28.5455 110.661 29.1761C110.348 29.8068 110.192 30.483 110.192 31.2045V32.3636C110.192 33.3523 110.362 34.1903 110.703 34.8778C111.05 35.5597 111.53 36.0795 112.143 36.4375C112.757 36.7898 113.47 36.9659 114.283 36.9659C114.811 36.9659 115.288 36.892 115.714 36.7443C116.146 36.5909 116.518 36.3636 116.831 36.0625C117.143 35.7557 117.385 35.375 117.555 34.9205L119.499 35.4659C119.294 36.125 118.95 36.7045 118.467 37.2045C117.984 37.6989 117.388 38.0852 116.678 38.3636C115.967 38.6364 115.169 38.7727 114.283 38.7727ZM128.456 25.4091V27.1136H121.672V25.4091H128.456ZM123.649 22.2727H125.661V34.75C125.661 35.3182 125.743 35.7443 125.908 36.0284C126.078 36.3068 126.294 36.4943 126.555 36.5909C126.822 36.6818 127.104 36.7273 127.399 36.7273C127.621 36.7273 127.803 36.7159 127.945 36.6932C128.087 36.6648 128.2 36.642 128.286 36.625L128.695 38.4318C128.558 38.483 128.368 38.5341 128.124 38.5852C127.879 38.642 127.57 38.6705 127.195 38.6705C126.626 38.6705 126.07 38.5483 125.524 38.304C124.984 38.0597 124.536 37.6875 124.178 37.1875C123.825 36.6875 123.649 36.0568 123.649 35.2955V22.2727Z" fill="#8B5CF6"/>
<path d="M131.754 38.5V21.0455H133.868V28.8182H143.175V21.0455H145.288V38.5H143.175V30.6932H133.868V38.5H131.754ZM154.736 38.7727C153.474 38.7727 152.386 38.4943 151.472 37.9375C150.562 37.375 149.861 36.5909 149.366 35.5852C148.878 34.5739 148.634 33.3977 148.634 32.0568C148.634 30.7159 148.878 29.5341 149.366 28.5114C149.861 27.483 150.548 26.6818 151.429 26.108C152.315 25.5284 153.349 25.2386 154.531 25.2386C155.213 25.2386 155.886 25.3523 156.551 25.5795C157.216 25.8068 157.821 26.1761 158.366 26.6875C158.912 27.1932 159.347 27.8636 159.67 28.6989C159.994 29.5341 160.156 30.5625 160.156 31.7841V32.6364H150.065V30.8977H158.111C158.111 30.1591 157.963 29.5 157.668 28.9205C157.378 28.3409 156.963 27.8835 156.423 27.5483C155.889 27.2131 155.259 27.0455 154.531 27.0455C153.73 27.0455 153.037 27.2443 152.452 27.642C151.872 28.0341 151.426 28.5455 151.114 29.1761C150.801 29.8068 150.645 30.483 150.645 31.2045V32.3636C150.645 33.3523 150.815 34.1903 151.156 34.8778C151.503 35.5597 151.983 36.0795 152.597 36.4375C153.21 36.7898 153.923 36.9659 154.736 36.9659C155.264 36.9659 155.741 36.892 156.168 36.7443C156.599 36.5909 156.972 36.3636 157.284 36.0625C157.597 35.7557 157.838 35.375 158.009 34.9205L159.952 35.4659C159.747 36.125 159.403 36.7045 158.92 37.2045C158.438 37.6989 157.841 38.0852 157.131 38.3636C156.42 38.6364 155.622 38.7727 154.736 38.7727ZM165.227 21.0455V38.5H163.216V21.0455H165.227ZM168.911 43.4091V25.4091H170.854V27.4886H171.093C171.241 27.2614 171.445 26.9716 171.707 26.6193C171.974 26.2614 172.354 25.9432 172.849 25.6648C173.349 25.3807 174.025 25.2386 174.877 25.2386C175.979 25.2386 176.951 25.5142 177.792 26.0653C178.633 26.6165 179.289 27.3977 179.761 28.4091C180.232 29.4205 180.468 30.6136 180.468 31.9886C180.468 33.375 180.232 34.5767 179.761 35.5938C179.289 36.6051 178.636 37.3892 177.8 37.946C176.965 38.4972 176.002 38.7727 174.911 38.7727C174.07 38.7727 173.397 38.6335 172.891 38.3551C172.386 38.071 171.996 37.75 171.724 37.392C171.451 37.0284 171.241 36.7273 171.093 36.4886H170.923V43.4091H168.911ZM170.888 31.9545C170.888 32.9432 171.033 33.8153 171.323 34.571C171.613 35.321 172.036 35.9091 172.593 36.3352C173.15 36.7557 173.832 36.9659 174.638 36.9659C175.479 36.9659 176.181 36.7443 176.744 36.3011C177.312 35.8523 177.738 35.25 178.022 34.4943C178.312 33.733 178.457 32.8864 178.457 31.9545C178.457 31.0341 178.315 30.2045 178.031 29.4659C177.752 28.7216 177.329 28.1335 176.761 27.7017C176.198 27.2642 175.491 27.0455 174.638 27.0455C173.82 27.0455 173.133 27.2528 172.576 27.6676C172.019 28.0767 171.599 28.6506 171.315 29.3892C171.031 30.1222 170.888 30.9773 170.888 31.9545Z" fill="#33B394"/>
</svg>
