<svg width="229" height="91" viewBox="0 0 229 91" fill="none" xmlns="http://www.w3.org/2000/svg">
<g clip-path="url(#clip0_22_50)">
<path d="M122.049 19.7507C122.049 20.1237 121.901 20.4814 121.637 20.7451C121.374 21.0088 121.016 21.157 120.643 21.157H109.393C109.02 21.157 108.662 21.0088 108.399 20.7451C108.135 20.4814 107.987 20.1237 107.987 19.7507C107.987 19.3778 108.135 19.0201 108.399 18.7563C108.662 18.4926 109.02 18.3445 109.393 18.3445H120.643C121.016 18.3445 121.374 18.4926 121.637 18.7563C121.901 19.0201 122.049 19.3778 122.049 19.7507ZM120.643 23.9695H109.393C109.02 23.9695 108.662 24.1176 108.399 24.3813C108.135 24.6451 107.987 25.0028 107.987 25.3757C107.987 25.7487 108.135 26.1064 108.399 26.3701C108.662 26.6338 109.02 26.782 109.393 26.782H120.643C121.016 26.782 121.374 26.6338 121.637 26.3701C121.901 26.1064 122.049 25.7487 122.049 25.3757C122.049 25.0028 121.901 24.6451 121.637 24.3813C121.374 24.1176 121.016 23.9695 120.643 23.9695ZM133.299 22.5632C133.3 25.7194 132.484 28.822 130.929 31.5691C129.375 34.3161 127.136 36.614 124.431 38.2391C121.725 39.8641 118.645 40.761 115.489 40.8424C112.334 40.9237 109.212 40.1869 106.426 38.7034L100.441 40.6986C99.945 40.8638 99.4132 40.8878 98.9048 40.7678C98.3964 40.6478 97.9314 40.3886 97.562 40.0193C97.1926 39.6499 96.9334 39.1849 96.8135 38.6765C96.6935 38.1681 96.7175 37.6363 96.8827 37.1407L98.8778 31.1554C97.5738 28.7037 96.8454 25.9871 96.7481 23.2118C96.6507 20.4365 97.1868 17.6756 98.3158 15.1384C99.4448 12.6013 101.137 10.3548 103.264 8.56925C105.391 6.78375 107.896 5.50624 110.591 4.83369C113.285 4.16115 116.097 4.11125 118.813 4.68778C121.53 5.26432 124.079 6.45212 126.268 8.16105C128.457 9.86997 130.228 12.0551 131.446 14.5506C132.664 17.046 133.298 19.7862 133.299 22.5632ZM130.487 22.5632C130.486 20.1904 129.94 17.8495 128.889 15.7217C127.839 13.5939 126.314 11.7362 124.431 10.2923C122.548 8.84846 120.358 7.85713 118.031 7.39502C115.703 6.93292 113.301 7.01244 111.009 7.62743C108.717 8.24241 106.598 9.37638 104.814 10.9416C103.031 12.5068 101.631 14.4613 100.724 16.6539C99.8172 18.8465 99.4267 21.2184 99.5829 23.5861C99.7391 25.9537 100.438 28.2537 101.625 30.3081C101.725 30.4806 101.787 30.6723 101.807 30.8705C101.827 31.0687 101.804 31.2688 101.741 31.4577L99.5493 38.032L106.124 35.84C106.267 35.7911 106.417 35.7662 106.568 35.7661C106.815 35.7666 107.058 35.8321 107.271 35.956C109.623 37.3166 112.291 38.0338 115.008 38.0355C117.725 38.0372 120.395 37.3234 122.748 35.9658C125.101 34.6081 127.055 32.6547 128.414 30.3019C129.773 27.9491 130.487 25.2801 130.487 22.5632Z" fill="#33B394"/>
<path d="M33.8182 72V48.7273H41.6818C43.5 48.7273 44.9924 49.0379 46.1591 49.6591C47.3258 50.2727 48.1894 51.1174 48.75 52.1932C49.3106 53.2689 49.5909 54.4924 49.5909 55.8636C49.5909 57.2348 49.3106 58.4508 48.75 59.5114C48.1894 60.572 47.3295 61.4053 46.1705 62.0114C45.0114 62.6098 43.5303 62.9091 41.7273 62.9091H35.3636V60.3636H41.6364C42.8788 60.3636 43.8788 60.1818 44.6364 59.8182C45.4015 59.4545 45.9545 58.9394 46.2955 58.2727C46.6439 57.5985 46.8182 56.7955 46.8182 55.8636C46.8182 54.9318 46.6439 54.1174 46.2955 53.4205C45.947 52.7235 45.3902 52.1856 44.625 51.8068C43.8598 51.4205 42.8485 51.2273 41.5909 51.2273H36.6364V72H33.8182ZM44.7727 61.5455L50.5 72H47.2273L41.5909 61.5455H44.7727ZM60.8267 72.3636C59.2509 72.3636 57.8684 71.9886 56.679 71.2386C55.4972 70.4886 54.5729 69.4394 53.9062 68.0909C53.2472 66.7424 52.9176 65.1667 52.9176 63.3636C52.9176 61.5455 53.2472 59.9583 53.9062 58.6023C54.5729 57.2462 55.4972 56.1932 56.679 55.4432C57.8684 54.6932 59.2509 54.3182 60.8267 54.3182C62.4025 54.3182 63.7813 54.6932 64.9631 55.4432C66.1525 56.1932 67.0767 57.2462 67.7358 58.6023C68.4025 59.9583 68.7358 61.5455 68.7358 63.3636C68.7358 65.1667 68.4025 66.7424 67.7358 68.0909C67.0767 69.4394 66.1525 70.4886 64.9631 71.2386C63.7813 71.9886 62.4025 72.3636 60.8267 72.3636ZM60.8267 69.9545C62.0237 69.9545 63.0085 69.6477 63.7812 69.0341C64.554 68.4205 65.1259 67.6136 65.4972 66.6136C65.8684 65.6136 66.054 64.5303 66.054 63.3636C66.054 62.197 65.8684 61.1098 65.4972 60.1023C65.1259 59.0947 64.554 58.2803 63.7812 57.6591C63.0085 57.0379 62.0237 56.7273 60.8267 56.7273C59.6297 56.7273 58.6449 57.0379 57.8722 57.6591C57.0994 58.2803 56.5275 59.0947 56.1562 60.1023C55.785 61.1098 55.5994 62.197 55.5994 63.3636C55.5994 64.5303 55.785 65.6136 56.1562 66.6136C56.5275 67.6136 57.0994 68.4205 57.8722 69.0341C58.6449 69.6477 59.6297 69.9545 60.8267 69.9545ZM79.9205 72.3636C78.2841 72.3636 76.875 71.9773 75.6932 71.2045C74.5114 70.4318 73.6023 69.3674 72.9659 68.0114C72.3295 66.6553 72.0114 65.1061 72.0114 63.3636C72.0114 61.5909 72.3371 60.0265 72.9886 58.6705C73.6477 57.3068 74.5644 56.2424 75.7386 55.4773C76.9205 54.7045 78.2992 54.3182 79.875 54.3182C81.1023 54.3182 82.2083 54.5455 83.1932 55C84.178 55.4545 84.9848 56.0909 85.6136 56.9091C86.2424 57.7273 86.6326 58.6818 86.7841 59.7727H84.1023C83.8977 58.9773 83.4432 58.2727 82.7386 57.6591C82.0417 57.0379 81.1023 56.7273 79.9205 56.7273C78.875 56.7273 77.9583 57 77.1705 57.5455C76.3902 58.0833 75.7803 58.8447 75.3409 59.8295C74.9091 60.8068 74.6932 61.9545 74.6932 63.2727C74.6932 64.6212 74.9053 65.7955 75.3295 66.7955C75.7614 67.7955 76.3674 68.572 77.1477 69.125C77.9356 69.678 78.8598 69.9545 79.9205 69.9545C80.6174 69.9545 81.25 69.8333 81.8182 69.5909C82.3864 69.3485 82.8674 69 83.2614 68.5455C83.6553 68.0909 83.9356 67.5455 84.1023 66.9091H86.7841C86.6326 67.9394 86.2576 68.8674 85.6591 69.6932C85.0682 70.5114 84.2841 71.1629 83.3068 71.6477C82.3371 72.125 81.2083 72.3636 79.9205 72.3636ZM93.2045 65.6364L93.1591 62.3182H93.7045L101.341 54.5455H104.659L96.5227 62.7727H96.2955L93.2045 65.6364ZM90.7045 72V48.7273H93.3864V72H90.7045ZM101.795 72L94.9773 63.3636L96.8864 61.5L105.205 72H101.795ZM114.71 72.3636C113.028 72.3636 111.578 71.9924 110.358 71.25C109.146 70.5 108.21 69.4545 107.551 68.1136C106.9 66.7652 106.574 65.197 106.574 63.4091C106.574 61.6212 106.9 60.0455 107.551 58.6818C108.21 57.3106 109.127 56.2424 110.301 55.4773C111.483 54.7045 112.862 54.3182 114.438 54.3182C115.347 54.3182 116.244 54.4697 117.131 54.7727C118.017 55.0758 118.824 55.5682 119.551 56.25C120.278 56.9242 120.858 57.8182 121.29 58.9318C121.722 60.0455 121.938 61.4167 121.938 63.0455V64.1818H108.483V61.8636H119.21C119.21 60.8788 119.013 60 118.619 59.2273C118.233 58.4545 117.68 57.8447 116.96 57.3977C116.248 56.9508 115.407 56.7273 114.438 56.7273C113.369 56.7273 112.445 56.9924 111.665 57.5227C110.892 58.0455 110.297 58.7273 109.881 59.5682C109.464 60.4091 109.256 61.3106 109.256 62.2727V63.8182C109.256 65.1364 109.483 66.2538 109.938 67.1705C110.4 68.0795 111.04 68.7727 111.858 69.25C112.676 69.7197 113.627 69.9545 114.71 69.9545C115.415 69.9545 116.051 69.8561 116.619 69.6591C117.195 69.4545 117.691 69.1515 118.108 68.75C118.525 68.3409 118.847 67.8333 119.074 67.2273L121.665 67.9545C121.392 68.8333 120.934 69.6061 120.29 70.2727C119.646 70.9318 118.85 71.447 117.903 71.8182C116.956 72.1818 115.892 72.3636 114.71 72.3636ZM133.608 54.5455V56.8182H124.562V54.5455H133.608ZM127.199 50.3636H129.881V67C129.881 67.7576 129.991 68.3258 130.21 68.7045C130.438 69.0758 130.725 69.3258 131.074 69.4545C131.43 69.5758 131.805 69.6364 132.199 69.6364C132.494 69.6364 132.737 69.6212 132.926 69.5909C133.116 69.553 133.267 69.5227 133.381 69.5L133.926 71.9091C133.744 71.9773 133.491 72.0455 133.165 72.1136C132.839 72.1894 132.426 72.2273 131.926 72.2273C131.169 72.2273 130.426 72.0644 129.699 71.7386C128.979 71.4129 128.381 70.9167 127.903 70.25C127.434 69.5833 127.199 68.7424 127.199 67.7273V50.3636Z" fill="#8B5CF6"/>
<path d="M138.006 72V48.7273H140.824V59.0909H153.233V48.7273H156.051V72H153.233V61.5909H140.824V72H138.006ZM168.648 72.3636C166.966 72.3636 165.515 71.9924 164.295 71.25C163.083 70.5 162.148 69.4545 161.489 68.1136C160.837 66.7652 160.511 65.197 160.511 63.4091C160.511 61.6212 160.837 60.0455 161.489 58.6818C162.148 57.3106 163.064 56.2424 164.239 55.4773C165.42 54.7045 166.799 54.3182 168.375 54.3182C169.284 54.3182 170.182 54.4697 171.068 54.7727C171.955 55.0758 172.761 55.5682 173.489 56.25C174.216 56.9242 174.795 57.8182 175.227 58.9318C175.659 60.0455 175.875 61.4167 175.875 63.0455V64.1818H162.42V61.8636H173.148C173.148 60.8788 172.951 60 172.557 59.2273C172.17 58.4545 171.617 57.8447 170.898 57.3977C170.186 56.9508 169.345 56.7273 168.375 56.7273C167.307 56.7273 166.383 56.9924 165.602 57.5227C164.83 58.0455 164.235 58.7273 163.818 59.5682C163.402 60.4091 163.193 61.3106 163.193 62.2727V63.8182C163.193 65.1364 163.42 66.2538 163.875 67.1705C164.337 68.0795 164.977 68.7727 165.795 69.25C166.614 69.7197 167.564 69.9545 168.648 69.9545C169.352 69.9545 169.989 69.8561 170.557 69.6591C171.133 69.4545 171.629 69.1515 172.045 68.75C172.462 68.3409 172.784 67.8333 173.011 67.2273L175.602 67.9545C175.33 68.8333 174.871 69.6061 174.227 70.2727C173.583 70.9318 172.788 71.447 171.841 71.8182C170.894 72.1818 169.83 72.3636 168.648 72.3636ZM182.636 48.7273V72H179.955V48.7273H182.636ZM187.548 78.5455V54.5455H190.139V57.3182H190.457C190.654 57.0152 190.927 56.6288 191.276 56.1591C191.632 55.6818 192.139 55.2576 192.798 54.8864C193.465 54.5076 194.366 54.3182 195.503 54.3182C196.973 54.3182 198.268 54.6856 199.389 55.4205C200.51 56.1553 201.385 57.197 202.014 58.5455C202.643 59.8939 202.957 61.4848 202.957 63.3182C202.957 65.1667 202.643 66.7689 202.014 68.125C201.385 69.4735 200.514 70.5189 199.401 71.2614C198.287 71.9962 197.003 72.3636 195.548 72.3636C194.427 72.3636 193.529 72.178 192.855 71.8068C192.181 71.428 191.662 71 191.298 70.5227C190.935 70.0379 190.654 69.6364 190.457 69.3182H190.23V78.5455H187.548ZM190.185 63.2727C190.185 64.5909 190.378 65.7538 190.764 66.7614C191.151 67.7614 191.715 68.5455 192.457 69.1136C193.2 69.6742 194.109 69.9545 195.185 69.9545C196.306 69.9545 197.241 69.6591 197.991 69.0682C198.749 68.4697 199.317 67.6667 199.696 66.6591C200.082 65.6439 200.276 64.5152 200.276 63.2727C200.276 62.0455 200.086 60.9394 199.707 59.9545C199.336 58.9621 198.772 58.178 198.014 57.6023C197.264 57.0189 196.321 56.7273 195.185 56.7273C194.094 56.7273 193.177 57.0038 192.435 57.5568C191.692 58.1023 191.132 58.8674 190.753 59.8523C190.374 60.8295 190.185 61.9697 190.185 63.2727Z" fill="#33B394"/>
</g>
<defs>
<clipPath id="clip0_22_50">
<rect width="229" height="91" fill="white"/>
</clipPath>
</defs>
</svg>
